<svg width="28" height="28" viewBox="0 0 28 28" fill="none" xmlns="http://www.w3.org/2000/svg">
<path d="M0.678802 8.09513L13.4176 13.8739C13.7895 14.0429 14.21 14.0429 14.5819 13.8739L27.3207 8.09513C28.2257 7.68444 28.2257 6.31672 27.3207 5.90603L14.5824 0.126735C14.3997 0.0432229 14.2012 0 14.0003 0C13.7994 0 13.6008 0.0432229 13.4181 0.126735L0.678802 5.90548C-0.226267 6.31618 -0.226267 7.68444 0.678802 8.09513ZM27.3212 12.9229L24.1444 11.483L15.3048 15.4899C14.8914 15.6774 14.4523 15.7726 14 15.7726C13.5477 15.7726 13.1091 15.6774 12.6952 15.4899L3.85612 11.483L0.678802 12.9229C-0.226267 13.333 -0.226267 14.7002 0.678802 15.1103L13.4176 20.8847C13.7895 21.0532 14.21 21.0532 14.5819 20.8847L27.3212 15.1103C28.2263 14.7002 28.2263 13.333 27.3212 12.9229ZM27.3212 19.9118L24.1565 18.4774L15.3048 22.4898C14.8914 22.6773 14.4523 22.7725 14 22.7725C13.5477 22.7725 13.1091 22.6773 12.6952 22.4898L3.84408 18.4774L0.678802 19.9118C-0.226267 20.322 -0.226267 21.6892 0.678802 22.0993L13.4176 27.8737C13.7895 28.0421 14.21 28.0421 14.5819 27.8737L27.3212 22.0993C28.2263 21.6892 28.2263 20.322 27.3212 19.9118Z" fill="#515151"/>
</svg>
