<svg width="28" height="24" viewBox="0 0 28 24" fill="none" xmlns="http://www.w3.org/2000/svg">
<path d="M6.46153 3.23076C6.46153 4.08762 6.12114 4.90937 5.51526 5.51526C4.90937 6.12114 4.08762 6.46153 3.23076 6.46153C2.37391 6.46153 1.55215 6.12114 0.946269 5.51526C0.340383 4.90937 0 4.08762 0 3.23076C0 2.37391 0.340383 1.55215 0.946269 0.946268C1.55215 0.340383 2.37391 0 3.23076 0C4.08762 0 4.90937 0.340383 5.51526 0.946268C6.12114 1.55215 6.46153 2.37391 6.46153 3.23076ZM6.46153 11.8461C6.46153 12.703 6.12114 13.5247 5.51526 14.1306C4.90937 14.7365 4.08762 15.0769 3.23076 15.0769C2.37391 15.0769 1.55215 14.7365 0.946269 14.1306C0.340383 13.5247 0 12.703 0 11.8461C0 10.9893 0.340383 10.1675 0.946269 9.56164C1.55215 8.95575 2.37391 8.61537 3.23076 8.61537C4.08762 8.61537 4.90937 8.95575 5.51526 9.56164C6.12114 10.1675 6.46153 10.9893 6.46153 11.8461ZM6.46153 20.4615C6.46153 21.3184 6.12114 22.1401 5.51526 22.746C4.90937 23.3519 4.08762 23.6923 3.23076 23.6923C2.37391 23.6923 1.55215 23.3519 0.946269 22.746C0.340383 22.1401 0 21.3184 0 20.4615C0 19.6046 0.340383 18.7829 0.946269 18.177C1.55215 17.5711 2.37391 17.2307 3.23076 17.2307C4.08762 17.2307 4.90937 17.5711 5.51526 18.177C6.12114 18.7829 6.46153 19.6046 6.46153 20.4615Z" fill="#515151"/>
<path fill-rule="evenodd" clip-rule="evenodd" d="M8.61542 3.23077C8.61542 2.65953 8.84234 2.1117 9.24626 1.70777C9.65019 1.30385 10.198 1.07693 10.7693 1.07693H25.8462C26.4174 1.07693 26.9652 1.30385 27.3692 1.70777C27.7731 2.1117 28 2.65953 28 3.23077C28 3.802 27.7731 4.34984 27.3692 4.75377C26.9652 5.15769 26.4174 5.38461 25.8462 5.38461H10.7693C10.198 5.38461 9.65019 5.15769 9.24626 4.75377C8.84234 4.34984 8.61542 3.802 8.61542 3.23077ZM8.61542 11.8461C8.61542 11.2749 8.84234 10.7271 9.24626 10.3231C9.65019 9.91922 10.198 9.6923 10.7693 9.6923H25.8462C26.4174 9.6923 26.9652 9.91922 27.3692 10.3231C27.7731 10.7271 28 11.2749 28 11.8461C28 12.4174 27.7731 12.9652 27.3692 13.3691C26.9652 13.7731 26.4174 14 25.8462 14H10.7693C10.198 14 9.65019 13.7731 9.24626 13.3691C8.84234 12.9652 8.61542 12.4174 8.61542 11.8461ZM8.61542 20.4615C8.61542 19.8903 8.84234 19.3424 9.24626 18.9385C9.65019 18.5346 10.198 18.3077 10.7693 18.3077H25.8462C26.4174 18.3077 26.9652 18.5346 27.3692 18.9385C27.7731 19.3424 28 19.8903 28 20.4615C28 21.0327 27.7731 21.5806 27.3692 21.9845C26.9652 22.3884 26.4174 22.6153 25.8462 22.6153H10.7693C10.198 22.6153 9.65019 22.3884 9.24626 21.9845C8.84234 21.5806 8.61542 21.0327 8.61542 20.4615Z" fill="#515151"/>
</svg>
