<svg width="28" height="28" viewBox="0 0 28 28" fill="none" xmlns="http://www.w3.org/2000/svg">
<path d="M28 13.5625V24.1111C28 24.9104 27.6722 25.677 27.0888 26.2423C26.5053 26.8075 25.714 27.125 24.8889 27.125H3.11111C2.28599 27.125 1.49467 26.8075 0.911223 26.2423C0.327777 25.677 0 24.9104 0 24.1111V13.5625H28ZM20.2222 0C20.6348 0 21.0304 0.158767 21.3222 0.441374C21.6139 0.723981 21.7778 1.10728 21.7778 1.50694V3.01389H24.8889C25.714 3.01389 26.5053 3.33142 27.0888 3.89664C27.6722 4.46185 28 5.22844 28 6.02778V10.5486H0V6.02778C0 5.22844 0.327777 4.46185 0.911223 3.89664C1.49467 3.33142 2.28599 3.01389 3.11111 3.01389H6.22222V1.50694C6.22222 1.10728 6.38611 0.723981 6.67783 0.441374C6.96956 0.158767 7.36522 0 7.77778 0C8.19034 0 8.586 0.158767 8.87772 0.441374C9.16945 0.723981 9.33333 1.10728 9.33333 1.50694V3.01389H18.6667V1.50694C18.6667 1.10728 18.8306 0.723981 19.1223 0.441374C19.414 0.158767 19.8097 0 20.2222 0Z" fill="#515151"/>
</svg>
