<svg width="36" height="36" viewBox="0 0 36 36" fill="none" xmlns="http://www.w3.org/2000/svg">
<path d="M22.736 32.792C20.6667 32.792 18.9493 32.2693 17.584 31.224C16.24 30.2 15.408 28.8667 15.088 27.224C12.2507 26.7547 10.1067 25.5707 8.656 23.672C7.20533 21.752 6.48 19.2347 6.48 16.12C6.48 12.4933 7.46133 9.69866 9.424 7.736C11.3867 5.752 14.2667 4.76 18.064 4.76C21.8613 4.76 24.7413 5.752 26.704 7.736C28.6667 9.69866 29.648 12.4933 29.648 16.12C29.648 19.2987 28.8693 21.816 27.312 23.672C25.776 25.528 23.472 26.68 20.4 27.128C20.5707 27.4693 20.88 27.7253 21.328 27.896C21.776 28.0667 22.2453 28.152 22.736 28.152C23.7173 28.152 24.5387 27.928 25.2 27.48C25.392 27.352 25.5413 27.288 25.648 27.288C25.8187 27.288 25.9467 27.384 26.032 27.576L27.76 30.296C27.8667 30.4667 27.92 30.5947 27.92 30.68C27.92 30.7653 27.8773 30.8507 27.792 30.936C27.728 31.0213 27.6427 31.1173 27.536 31.224C26.9173 31.736 26.224 32.12 25.456 32.376C24.7093 32.6533 23.8027 32.792 22.736 32.792ZM18.064 22.104C19.4507 22.104 20.4533 21.6133 21.072 20.632C21.6907 19.6293 22 18.1253 22 16.12C22 14.0933 21.6907 12.5893 21.072 11.608C20.4533 10.6267 19.4507 10.136 18.064 10.136C16.6773 10.136 15.6747 10.6267 15.056 11.608C14.4373 12.5893 14.128 14.0933 14.128 16.12C14.128 18.1253 14.4373 19.6293 15.056 20.632C15.6747 21.6133 16.6773 22.104 18.064 22.104Z" fill="#21A7A7"/>
</svg>
